<svg xmlns="http://www.w3.org/2000/svg" xmlns:xlink="http://www.w3.org/1999/xlink" contentStyleType="text/css" data-diagram-type="CLASS" height="845px" preserveAspectRatio="none" style="width:2272px;height:845px;background:#FFFFFF;" version="1.1" viewBox="0 0 2272 845" width="2272px" zoomAndPan="magnify"><title>&#28120;&#31080;&#31080;&#20998;&#24067;&#24335;&#38145;&#26680;&#24515;&#31867;&#20851;&#31995;&#22270;</title><defs/><g><g class="title" data-source-line="1"><text fill="#000000" font-family="sans-serif" font-size="14" font-weight="bold" lengthAdjust="spacing" textLength="181.9992" x="1038.3235" y="22.9951">&#28120;&#31080;&#31080;&#20998;&#24067;&#24335;&#38145;&#26680;&#24515;&#31867;&#20851;&#31995;&#22270;</text></g><!--class ServiceLock--><g class="entity" data-entity="ServiceLock" data-source-line="4" data-uid="ent0002" id="entity_ServiceLock"><rect fill="#F1F1F1" height="166.375" rx="2.5" ry="2.5" style="stroke:#181818;stroke-width:0.5;" width="339.4688" x="7" y="233.7869"/><ellipse cx="130.5288" cy="251.9353" fill="#ADD1B2" rx="11" ry="11" style="stroke:#181818;stroke-width:1;"/><path d="M133.4976,257.5759 Q132.9194,257.8728 132.2788,258.0134 Q131.6382,258.1697 130.9351,258.1697 Q128.4351,258.1697 127.1069,256.5291 Q125.7944,254.8728 125.7944,251.7478 Q125.7944,248.6228 127.1069,246.9666 Q128.4351,245.3103 130.9351,245.3103 Q131.6382,245.3103 132.2788,245.4666 Q132.9351,245.6228 133.4976,245.9197 L133.4976,248.6384 Q132.8726,248.0603 132.2788,247.7947 Q131.6851,247.5134 131.0601,247.5134 Q129.7163,247.5134 129.0288,248.5916 Q128.3413,249.6541 128.3413,251.7478 Q128.3413,253.8416 129.0288,254.9197 Q129.7163,255.9822 131.0601,255.9822 Q131.6851,255.9822 132.2788,255.7166 Q132.8726,255.4353 133.4976,254.8572 L133.4976,257.5759 Z " fill="#000000"/><text fill="#000000" font-family="sans-serif" font-size="12" font-style="italic" lengthAdjust="spacing" textLength="0" x="192.9844" y="238.7869">&#171;annotation&#187;</text><text fill="#000000" font-family="sans-serif" font-size="14" lengthAdjust="spacing" textLength="83.9111" x="151.0288" y="261.782">ServiceLock</text><line style="stroke:#181818;stroke-width:0.5;" x1="8" x2="345.4688" y1="270.0838" y2="270.0838"/><line style="stroke:#181818;stroke-width:0.5;" x1="8" x2="345.4688" y1="278.0838" y2="278.0838"/><ellipse cx="18" cy="291.7322" fill="#84BE84" rx="3" ry="3" style="stroke:#038048;stroke-width:1;"/><text fill="#000000" font-family="sans-serif" font-size="14" lengthAdjust="spacing" textLength="144.4775" x="27" y="295.0789">LockType lockType()</text><ellipse cx="18" cy="308.0291" fill="#84BE84" rx="3" ry="3" style="stroke:#038048;stroke-width:1;"/><text fill="#000000" font-family="sans-serif" font-size="14" lengthAdjust="spacing" textLength="96.8584" x="27" y="311.3757">String name()</text><ellipse cx="18" cy="324.3259" fill="#84BE84" rx="3" ry="3" style="stroke:#038048;stroke-width:1;"/><text fill="#000000" font-family="sans-serif" font-size="14" lengthAdjust="spacing" textLength="100.3789" x="27" y="327.6726">String[] keys()</text><ellipse cx="18" cy="340.6228" fill="#84BE84" rx="3" ry="3" style="stroke:#038048;stroke-width:1;"/><text fill="#000000" font-family="sans-serif" font-size="14" lengthAdjust="spacing" textLength="109.6895" x="27" y="343.9695">long waitTime()</text><ellipse cx="18" cy="356.9197" fill="#84BE84" rx="3" ry="3" style="stroke:#038048;stroke-width:1;"/><text fill="#000000" font-family="sans-serif" font-size="14" lengthAdjust="spacing" textLength="138.6943" x="27" y="360.2664">TimeUnit timeUnit()</text><ellipse cx="18" cy="373.2166" fill="#84BE84" rx="3" ry="3" style="stroke:#038048;stroke-width:1;"/><text fill="#000000" font-family="sans-serif" font-size="14" lengthAdjust="spacing" textLength="313.4688" x="27" y="376.5632">LockTimeOutStrategy lockTimeoutStrategy()</text><ellipse cx="18" cy="389.5134" fill="#84BE84" rx="3" ry="3" style="stroke:#038048;stroke-width:1;"/><text fill="#000000" font-family="sans-serif" font-size="14" lengthAdjust="spacing" textLength="258.4873" x="27" y="392.8601">String customLockTimeoutStrategy()</text></g><!--class ServiceLockAspect--><g class="entity" data-entity="ServiceLockAspect" data-source-line="15" data-uid="ent0003" id="entity_ServiceLockAspect"><rect fill="#F1F1F1" height="96.8906" rx="2.5" ry="2.5" style="stroke:#181818;stroke-width:0.5;" width="519.9512" x="285.76" y="60.5969"/><ellipse cx="475.7512" cy="76.5969" fill="#ADD1B2" rx="11" ry="11" style="stroke:#181818;stroke-width:1;"/><path d="M478.72,82.2375 Q478.1418,82.5344 477.5012,82.675 Q476.8606,82.8313 476.1575,82.8313 Q473.6575,82.8313 472.3293,81.1906 Q471.0168,79.5344 471.0168,76.4094 Q471.0168,73.2844 472.3293,71.6281 Q473.6575,69.9719 476.1575,69.9719 Q476.8606,69.9719 477.5012,70.1281 Q478.1575,70.2844 478.72,70.5813 L478.72,73.3 Q478.095,72.7219 477.5012,72.4563 Q476.9075,72.175 476.2825,72.175 Q474.9387,72.175 474.2512,73.2531 Q473.5637,74.3156 473.5637,76.4094 Q473.5637,78.5031 474.2512,79.5813 Q474.9387,80.6438 476.2825,80.6438 Q476.9075,80.6438 477.5012,80.3781 Q478.095,80.0969 478.72,79.5188 L478.72,82.2375 Z " fill="#000000"/><text fill="#000000" font-family="sans-serif" font-size="14" lengthAdjust="spacing" textLength="131.4688" x="496.2512" y="81.4436">ServiceLockAspect</text><line style="stroke:#181818;stroke-width:0.5;" x1="286.76" x2="804.7112" y1="92.5969" y2="92.5969"/><rect fill="none" height="6" style="stroke:#C82930;stroke-width:1;" width="6" x="293.76" y="103.2453"/><text fill="#000000" font-family="sans-serif" font-size="14" lengthAdjust="spacing" textLength="321.46" x="305.76" y="109.592">LockInfoHandleFactory lockInfoHandleFactory</text><rect fill="none" height="6" style="stroke:#C82930;stroke-width:1;" width="6" x="293.76" y="119.5422"/><text fill="#000000" font-family="sans-serif" font-size="14" lengthAdjust="spacing" textLength="275.5293" x="305.76" y="125.8889">ServiceLockFactory serviceLockFactory</text><line style="stroke:#181818;stroke-width:0.5;" x1="286.76" x2="804.7112" y1="133.1906" y2="133.1906"/><ellipse cx="296.76" cy="146.8391" fill="#84BE84" rx="3" ry="3" style="stroke:#038048;stroke-width:1;"/><text fill="#000000" font-family="sans-serif" font-size="14" lengthAdjust="spacing" textLength="493.9512" x="305.76" y="150.1857">Object around(ProceedingJoinPoint joinPoint, ServiceLock serviceLock)</text></g><!--class ServiceLocker--><g class="entity" data-entity="ServiceLocker" data-source-line="22" data-uid="ent0004" id="entity_ServiceLocker"><rect fill="#F1F1F1" height="129.4844" rx="2.5" ry="2.5" style="stroke:#181818;stroke-width:0.5;" width="460.9502" x="1514.26" y="44.2969"/><ellipse cx="1695.2449" cy="60.2969" fill="#B4A7E5" rx="11" ry="11" style="stroke:#181818;stroke-width:1;"/><path d="M1691.1667,56.0625 L1691.1667,53.9063 L1698.5574,53.9063 L1698.5574,56.0625 L1696.0886,56.0625 L1696.0886,64.1406 L1698.5574,64.1406 L1698.5574,66.2969 L1691.1667,66.2969 L1691.1667,64.1406 L1693.6355,64.1406 L1693.6355,56.0625 L1691.1667,56.0625 Z " fill="#000000"/><text fill="#000000" font-family="sans-serif" font-size="14" font-style="italic" lengthAdjust="spacing" textLength="90.4805" x="1715.7449" y="65.1436">ServiceLocker</text><line style="stroke:#181818;stroke-width:0.5;" x1="1515.26" x2="1974.2102" y1="76.2969" y2="76.2969"/><line style="stroke:#181818;stroke-width:0.5;" x1="1515.26" x2="1974.2102" y1="84.2969" y2="84.2969"/><ellipse cx="1525.26" cy="97.9453" fill="#84BE84" rx="3" ry="3" style="stroke:#038048;stroke-width:1;"/><text fill="#000000" font-family="sans-serif" font-size="14" lengthAdjust="spacing" textLength="213.001" x="1534.26" y="101.292">RLock getLock(String lockKey)</text><ellipse cx="1525.26" cy="114.2422" fill="#84BE84" rx="3" ry="3" style="stroke:#038048;stroke-width:1;"/><text fill="#000000" font-family="sans-serif" font-size="14" lengthAdjust="spacing" textLength="186.1016" x="1534.26" y="117.5889">RLock lock(String lockKey)</text><ellipse cx="1525.26" cy="130.5391" fill="#84BE84" rx="3" ry="3" style="stroke:#038048;stroke-width:1;"/><text fill="#000000" font-family="sans-serif" font-size="14" lengthAdjust="spacing" textLength="434.9502" x="1534.26" y="133.8857">boolean tryLock(String lockKey, TimeUnit unit, long waitTime)</text><ellipse cx="1525.26" cy="146.8359" fill="#84BE84" rx="3" ry="3" style="stroke:#038048;stroke-width:1;"/><text fill="#000000" font-family="sans-serif" font-size="14" lengthAdjust="spacing" textLength="191.5771" x="1534.26" y="150.1826">void unlock(String lockKey)</text><ellipse cx="1525.26" cy="163.1328" fill="#84BE84" rx="3" ry="3" style="stroke:#038048;stroke-width:1;"/><text fill="#000000" font-family="sans-serif" font-size="14" lengthAdjust="spacing" textLength="165.6143" x="1534.26" y="166.4795">void unlock(RLock lock)</text></g><!--class RedissonReentrantLocker--><g class="entity" data-entity="RedissonReentrantLocker" data-source-line="31" data-uid="ent0005" id="entity_RedissonReentrantLocker"><rect fill="#F1F1F1" height="64.2969" rx="2.5" ry="2.5" style="stroke:#181818;stroke-width:0.5;" width="233.8262" x="1224.82" y="284.8269"/><ellipse cx="1249.7784" cy="300.8269" fill="#ADD1B2" rx="11" ry="11" style="stroke:#181818;stroke-width:1;"/><path d="M1252.7472,306.4675 Q1252.1691,306.7644 1251.5284,306.905 Q1250.8878,307.0613 1250.1847,307.0613 Q1247.6847,307.0613 1246.3566,305.4206 Q1245.0441,303.7644 1245.0441,300.6394 Q1245.0441,297.5144 1246.3566,295.8581 Q1247.6847,294.2019 1250.1847,294.2019 Q1250.8878,294.2019 1251.5284,294.3581 Q1252.1847,294.5144 1252.7472,294.8113 L1252.7472,297.53 Q1252.1222,296.9519 1251.5284,296.6863 Q1250.9347,296.405 1250.3097,296.405 Q1248.9659,296.405 1248.2784,297.4831 Q1247.5909,298.5456 1247.5909,300.6394 Q1247.5909,302.7331 1248.2784,303.8113 Q1248.9659,304.8738 1250.3097,304.8738 Q1250.9347,304.8738 1251.5284,304.6081 Q1252.1222,304.3269 1252.7472,303.7488 L1252.7472,306.4675 Z " fill="#000000"/><text fill="#000000" font-family="sans-serif" font-size="14" lengthAdjust="spacing" textLength="179.6963" x="1265.9914" y="305.6736">RedissonReentrantLocker</text><line style="stroke:#181818;stroke-width:0.5;" x1="1225.82" x2="1457.6462" y1="316.8269" y2="316.8269"/><rect fill="none" height="6" style="stroke:#C82930;stroke-width:1;" width="6" x="1232.82" y="327.4753"/><text fill="#000000" font-family="sans-serif" font-size="14" lengthAdjust="spacing" textLength="207.8262" x="1244.82" y="333.822">RedissonClient redissonClient</text><line style="stroke:#181818;stroke-width:0.5;" x1="1225.82" x2="1457.6462" y1="341.1238" y2="341.1238"/></g><!--class RedissonFairLocker--><g class="entity" data-entity="RedissonFairLocker" data-source-line="35" data-uid="ent0006" id="entity_RedissonFairLocker"><rect fill="#F1F1F1" height="64.2969" rx="2.5" ry="2.5" style="stroke:#181818;stroke-width:0.5;" width="233.8262" x="1493.82" y="284.8269"/><ellipse cx="1538.5031" cy="300.8269" fill="#ADD1B2" rx="11" ry="11" style="stroke:#181818;stroke-width:1;"/><path d="M1541.4719,306.4675 Q1540.8937,306.7644 1540.2531,306.905 Q1539.6125,307.0613 1538.9094,307.0613 Q1536.4094,307.0613 1535.0812,305.4206 Q1533.7687,303.7644 1533.7687,300.6394 Q1533.7687,297.5144 1535.0812,295.8581 Q1536.4094,294.2019 1538.9094,294.2019 Q1539.6125,294.2019 1540.2531,294.3581 Q1540.9094,294.5144 1541.4719,294.8113 L1541.4719,297.53 Q1540.8469,296.9519 1540.2531,296.6863 Q1539.6594,296.405 1539.0344,296.405 Q1537.6906,296.405 1537.0031,297.4831 Q1536.3156,298.5456 1536.3156,300.6394 Q1536.3156,302.7331 1537.0031,303.8113 Q1537.6906,304.8738 1539.0344,304.8738 Q1539.6594,304.8738 1540.2531,304.6081 Q1540.8469,304.3269 1541.4719,303.7488 L1541.4719,306.4675 Z " fill="#000000"/><text fill="#000000" font-family="sans-serif" font-size="14" lengthAdjust="spacing" textLength="135.96" x="1559.0031" y="305.6736">RedissonFairLocker</text><line style="stroke:#181818;stroke-width:0.5;" x1="1494.82" x2="1726.6462" y1="316.8269" y2="316.8269"/><rect fill="none" height="6" style="stroke:#C82930;stroke-width:1;" width="6" x="1501.82" y="327.4753"/><text fill="#000000" font-family="sans-serif" font-size="14" lengthAdjust="spacing" textLength="207.8262" x="1513.82" y="333.822">RedissonClient redissonClient</text><line style="stroke:#181818;stroke-width:0.5;" x1="1494.82" x2="1726.6462" y1="341.1238" y2="341.1238"/></g><!--class RedissonReadLocker--><g class="entity" data-entity="RedissonReadLocker" data-source-line="39" data-uid="ent0007" id="entity_RedissonReadLocker"><rect fill="#F1F1F1" height="64.2969" rx="2.5" ry="2.5" style="stroke:#181818;stroke-width:0.5;" width="233.8262" x="1762.82" y="284.8269"/><ellipse cx="1803.1716" cy="300.8269" fill="#ADD1B2" rx="11" ry="11" style="stroke:#181818;stroke-width:1;"/><path d="M1806.1404,306.4675 Q1805.5622,306.7644 1804.9216,306.905 Q1804.281,307.0613 1803.5779,307.0613 Q1801.0779,307.0613 1799.7497,305.4206 Q1798.4372,303.7644 1798.4372,300.6394 Q1798.4372,297.5144 1799.7497,295.8581 Q1801.0779,294.2019 1803.5779,294.2019 Q1804.281,294.2019 1804.9216,294.3581 Q1805.5779,294.5144 1806.1404,294.8113 L1806.1404,297.53 Q1805.5154,296.9519 1804.9216,296.6863 Q1804.3279,296.405 1803.7029,296.405 Q1802.3591,296.405 1801.6716,297.4831 Q1800.9841,298.5456 1800.9841,300.6394 Q1800.9841,302.7331 1801.6716,303.8113 Q1802.3591,304.8738 1803.7029,304.8738 Q1804.3279,304.8738 1804.9216,304.6081 Q1805.5154,304.3269 1806.1404,303.7488 L1806.1404,306.4675 Z " fill="#000000"/><text fill="#000000" font-family="sans-serif" font-size="14" lengthAdjust="spacing" textLength="145.4893" x="1822.8053" y="305.6736">RedissonReadLocker</text><line style="stroke:#181818;stroke-width:0.5;" x1="1763.82" x2="1995.6462" y1="316.8269" y2="316.8269"/><rect fill="none" height="6" style="stroke:#C82930;stroke-width:1;" width="6" x="1770.82" y="327.4753"/><text fill="#000000" font-family="sans-serif" font-size="14" lengthAdjust="spacing" textLength="207.8262" x="1782.82" y="333.822">RedissonClient redissonClient</text><line style="stroke:#181818;stroke-width:0.5;" x1="1763.82" x2="1995.6462" y1="341.1238" y2="341.1238"/></g><!--class RedissonWriteLocker--><g class="entity" data-entity="RedissonWriteLocker" data-source-line="43" data-uid="ent0008" id="entity_RedissonWriteLocker"><rect fill="#F1F1F1" height="64.2969" rx="2.5" ry="2.5" style="stroke:#181818;stroke-width:0.5;" width="233.8262" x="2031.82" y="284.8269"/><ellipse cx="2071.3687" cy="300.8269" fill="#ADD1B2" rx="11" ry="11" style="stroke:#181818;stroke-width:1;"/><path d="M2074.3375,306.4675 Q2073.7594,306.7644 2073.1187,306.905 Q2072.4781,307.0613 2071.775,307.0613 Q2069.275,307.0613 2067.9469,305.4206 Q2066.6344,303.7644 2066.6344,300.6394 Q2066.6344,297.5144 2067.9469,295.8581 Q2069.275,294.2019 2071.775,294.2019 Q2072.4781,294.2019 2073.1187,294.3581 Q2073.775,294.5144 2074.3375,294.8113 L2074.3375,297.53 Q2073.7125,296.9519 2073.1187,296.6863 Q2072.525,296.405 2071.9,296.405 Q2070.5562,296.405 2069.8687,297.4831 Q2069.1812,298.5456 2069.1812,300.6394 Q2069.1812,302.7331 2069.8687,303.8113 Q2070.5562,304.8738 2071.9,304.8738 Q2072.525,304.8738 2073.1187,304.6081 Q2073.7125,304.3269 2074.3375,303.7488 L2074.3375,306.4675 Z " fill="#000000"/><text fill="#000000" font-family="sans-serif" font-size="14" lengthAdjust="spacing" textLength="147.2734" x="2090.824" y="305.6736">RedissonWriteLocker</text><line style="stroke:#181818;stroke-width:0.5;" x1="2032.82" x2="2264.6462" y1="316.8269" y2="316.8269"/><rect fill="none" height="6" style="stroke:#C82930;stroke-width:1;" width="6" x="2039.82" y="327.4753"/><text fill="#000000" font-family="sans-serif" font-size="14" lengthAdjust="spacing" textLength="207.8262" x="2051.82" y="333.822">RedissonClient redissonClient</text><line style="stroke:#181818;stroke-width:0.5;" x1="2032.82" x2="2264.6462" y1="341.1238" y2="341.1238"/></g><!--class ServiceLockFactory--><g class="entity" data-entity="ServiceLockFactory" data-source-line="48" data-uid="ent0009" id="entity_ServiceLockFactory"><rect fill="#F1F1F1" height="80.5938" rx="2.5" ry="2.5" style="stroke:#181818;stroke-width:0.5;" width="328.3672" x="381.55" y="276.6769"/><ellipse cx="473.3156" cy="292.6769" fill="#ADD1B2" rx="11" ry="11" style="stroke:#181818;stroke-width:1;"/><path d="M476.2844,298.3175 Q475.7063,298.6144 475.0656,298.755 Q474.425,298.9113 473.7219,298.9113 Q471.2219,298.9113 469.8938,297.2706 Q468.5813,295.6144 468.5813,292.4894 Q468.5813,289.3644 469.8938,287.7081 Q471.2219,286.0519 473.7219,286.0519 Q474.425,286.0519 475.0656,286.2081 Q475.7219,286.3644 476.2844,286.6613 L476.2844,289.38 Q475.6594,288.8019 475.0656,288.5363 Q474.4719,288.255 473.8469,288.255 Q472.5031,288.255 471.8156,289.3331 Q471.1281,290.3956 471.1281,292.4894 Q471.1281,294.5831 471.8156,295.6613 Q472.5031,296.7238 473.8469,296.7238 Q474.4719,296.7238 475.0656,296.4581 Q475.6594,296.1769 476.2844,295.5988 L476.2844,298.3175 Z " fill="#000000"/><text fill="#000000" font-family="sans-serif" font-size="14" lengthAdjust="spacing" textLength="136.3359" x="493.8156" y="297.5236">ServiceLockFactory</text><line style="stroke:#181818;stroke-width:0.5;" x1="382.55" x2="708.9172" y1="308.6769" y2="308.6769"/><rect fill="none" height="6" style="stroke:#C82930;stroke-width:1;" width="6" x="389.55" y="319.3253"/><text fill="#000000" font-family="sans-serif" font-size="14" lengthAdjust="spacing" textLength="210.3076" x="401.55" y="325.672">ManageLocker manageLocker</text><line style="stroke:#181818;stroke-width:0.5;" x1="382.55" x2="708.9172" y1="332.9738" y2="332.9738"/><ellipse cx="392.55" cy="346.6222" fill="#84BE84" rx="3" ry="3" style="stroke:#038048;stroke-width:1;"/><text fill="#000000" font-family="sans-serif" font-size="14" lengthAdjust="spacing" textLength="302.3672" x="401.55" y="349.9689">ServiceLocker getLock(LockType lockType)</text></g><!--class ManageLocker--><g class="entity" data-entity="ManageLocker" data-source-line="53" data-uid="ent0010" id="entity_ManageLocker"><rect fill="#F1F1F1" height="129.4844" rx="2.5" ry="2.5" style="stroke:#181818;stroke-width:0.5;" width="360.6123" x="351.43" y="460.1569"/><ellipse cx="476.4114" cy="476.1569" fill="#ADD1B2" rx="11" ry="11" style="stroke:#181818;stroke-width:1;"/><path d="M479.3802,481.7975 Q478.8021,482.0944 478.1614,482.235 Q477.5208,482.3913 476.8177,482.3913 Q474.3177,482.3913 472.9896,480.7506 Q471.6771,479.0944 471.6771,475.9694 Q471.6771,472.8444 472.9896,471.1881 Q474.3177,469.5319 476.8177,469.5319 Q477.5208,469.5319 478.1614,469.6881 Q478.8177,469.8444 479.3802,470.1413 L479.3802,472.86 Q478.7552,472.2819 478.1614,472.0163 Q477.5677,471.735 476.9427,471.735 Q475.5989,471.735 474.9114,472.8131 Q474.2239,473.8756 474.2239,475.9694 Q474.2239,478.0631 474.9114,479.1413 Q475.5989,480.2038 476.9427,480.2038 Q477.5677,480.2038 478.1614,479.9381 Q478.7552,479.6569 479.3802,479.0788 L479.3802,481.7975 Z " fill="#000000"/><text fill="#000000" font-family="sans-serif" font-size="14" lengthAdjust="spacing" textLength="102.1494" x="496.9114" y="481.0036">ManageLocker</text><line style="stroke:#181818;stroke-width:0.5;" x1="352.43" x2="711.0423" y1="492.1569" y2="492.1569"/><rect fill="none" height="6" style="stroke:#C82930;stroke-width:1;" width="6" x="359.43" y="502.8053"/><text fill="#000000" font-family="sans-serif" font-size="14" lengthAdjust="spacing" textLength="207.8262" x="371.43" y="509.152">RedissonClient redissonClient</text><line style="stroke:#181818;stroke-width:0.5;" x1="352.43" x2="711.0423" y1="516.4538" y2="516.4538"/><ellipse cx="362.43" cy="530.1022" fill="#84BE84" rx="3" ry="3" style="stroke:#038048;stroke-width:1;"/><text fill="#000000" font-family="sans-serif" font-size="14" lengthAdjust="spacing" textLength="334.6123" x="371.43" y="533.4489">RedissonReentrantLocker getReentrantLocker()</text><ellipse cx="362.43" cy="546.3991" fill="#84BE84" rx="3" ry="3" style="stroke:#038048;stroke-width:1;"/><text fill="#000000" font-family="sans-serif" font-size="14" lengthAdjust="spacing" textLength="247.1396" x="371.43" y="549.7457">RedissonFairLocker getFairLocker()</text><ellipse cx="362.43" cy="562.6959" fill="#84BE84" rx="3" ry="3" style="stroke:#038048;stroke-width:1;"/><text fill="#000000" font-family="sans-serif" font-size="14" lengthAdjust="spacing" textLength="266.1982" x="371.43" y="566.0426">RedissonReadLocker getReadLocker()</text><ellipse cx="362.43" cy="578.9928" fill="#84BE84" rx="3" ry="3" style="stroke:#038048;stroke-width:1;"/><text fill="#000000" font-family="sans-serif" font-size="14" lengthAdjust="spacing" textLength="269.7666" x="371.43" y="582.3395">RedissonWriteLocker getWriteLocker()</text></g><!--class LockInfoHandle--><g class="entity" data-entity="LockInfoHandle" data-source-line="62" data-uid="ent0011" id="entity_LockInfoHandle"><rect fill="#F1F1F1" height="80.5938" rx="2.5" ry="2.5" style="stroke:#181818;stroke-width:0.5;" width="498.4521" x="747.51" y="484.6069"/><ellipse cx="947.6321" cy="500.6069" fill="#B4A7E5" rx="11" ry="11" style="stroke:#181818;stroke-width:1;"/><path d="M943.5539,496.3725 L943.5539,494.2163 L950.9446,494.2163 L950.9446,496.3725 L948.4758,496.3725 L948.4758,504.4506 L950.9446,504.4506 L950.9446,506.6069 L943.5539,506.6069 L943.5539,504.4506 L946.0227,504.4506 L946.0227,496.3725 L943.5539,496.3725 Z " fill="#000000"/><text fill="#000000" font-family="sans-serif" font-size="14" font-style="italic" lengthAdjust="spacing" textLength="89.708" x="968.1321" y="505.4536">LockInfoHandle</text><line style="stroke:#181818;stroke-width:0.5;" x1="748.51" x2="1244.9621" y1="516.6069" y2="516.6069"/><line style="stroke:#181818;stroke-width:0.5;" x1="748.51" x2="1244.9621" y1="524.6069" y2="524.6069"/><ellipse cx="758.51" cy="538.2553" fill="#84BE84" rx="3" ry="3" style="stroke:#038048;stroke-width:1;"/><text fill="#000000" font-family="sans-serif" font-size="14" lengthAdjust="spacing" textLength="472.4521" x="767.51" y="541.602">String getLockName(JoinPoint joinPoint, String name, String[] keys)</text><ellipse cx="758.51" cy="554.5522" fill="#84BE84" rx="3" ry="3" style="stroke:#038048;stroke-width:1;"/><text fill="#000000" font-family="sans-serif" font-size="14" lengthAdjust="spacing" textLength="386.0801" x="767.51" y="557.8989">String simpleGetLockName(String name, String[] keys)</text></g><!--class AbstractLockInfoHandle--><g class="entity" data-entity="AbstractLockInfoHandle" data-source-line="68" data-uid="ent0012" id="entity_AbstractLockInfoHandle"><rect fill="#F1F1F1" height="64.2969" rx="2.5" ry="2.5" style="stroke:#181818;stroke-width:0.5;" width="219.5322" x="886.97" y="649.6469"/><ellipse cx="919.545" cy="665.6469" fill="#A9DCDF" rx="11" ry="11" style="stroke:#181818;stroke-width:1;"/><path d="M919.6544,660.9906 L918.4982,666.0688 L920.8263,666.0688 L919.6544,660.9906 Z M918.17,658.7563 L921.1544,658.7563 L924.5138,671.1469 L922.0607,671.1469 L921.295,668.0844 L918.0138,668.0844 L917.2638,671.1469 L914.8263,671.1469 L918.17,658.7563 Z " fill="#000000"/><text fill="#000000" font-family="sans-serif" font-size="14" font-style="italic" lengthAdjust="spacing" textLength="148.4766" x="937.4506" y="670.4936">AbstractLockInfoHandle</text><line style="stroke:#181818;stroke-width:0.5;" x1="887.97" x2="1105.5022" y1="681.6469" y2="681.6469"/><line style="stroke:#181818;stroke-width:0.5;" x1="887.97" x2="1105.5022" y1="689.6469" y2="689.6469"/><polygon fill="#FFFF44" points="897.97,698.2953,901.97,702.2953,897.97,706.2953,893.97,702.2953" style="stroke:#B38D22;stroke-width:1;"/><text fill="#000000" font-family="sans-serif" font-size="14" lengthAdjust="spacing" textLength="193.5322" x="906.97" y="706.642">String getLockPrefixName()</text></g><!--class ServiceLockInfoHandle--><g class="entity" data-entity="ServiceLockInfoHandle" data-source-line="72" data-uid="ent0013" id="entity_ServiceLockInfoHandle"><rect fill="#F1F1F1" height="64.2969" rx="2.5" ry="2.5" style="stroke:#181818;stroke-width:0.5;" width="213.7695" x="889.85" y="773.9369"/><ellipse cx="914.7469" cy="789.9369" fill="#ADD1B2" rx="11" ry="11" style="stroke:#181818;stroke-width:1;"/><path d="M917.7157,795.5775 Q917.1375,795.8744 916.4969,796.015 Q915.8563,796.1713 915.1532,796.1713 Q912.6532,796.1713 911.325,794.5306 Q910.0125,792.8744 910.0125,789.7494 Q910.0125,786.6244 911.325,784.9681 Q912.6532,783.3119 915.1532,783.3119 Q915.8563,783.3119 916.4969,783.4681 Q917.1532,783.6244 917.7157,783.9213 L917.7157,786.64 Q917.0907,786.0619 916.4969,785.7963 Q915.9032,785.515 915.2782,785.515 Q913.9344,785.515 913.2469,786.5931 Q912.5594,787.6556 912.5594,789.7494 Q912.5594,791.8431 913.2469,792.9213 Q913.9344,793.9838 915.2782,793.9838 Q915.9032,793.9838 916.4969,793.7181 Q917.0907,793.4369 917.7157,792.8588 L917.7157,795.5775 Z " fill="#000000"/><text fill="#000000" font-family="sans-serif" font-size="14" lengthAdjust="spacing" textLength="159.7764" x="930.9462" y="794.7836">ServiceLockInfoHandle</text><line style="stroke:#181818;stroke-width:0.5;" x1="890.85" x2="1102.6195" y1="805.9369" y2="805.9369"/><rect fill="none" height="6" style="stroke:#C82930;stroke-width:1;" width="6" x="897.85" y="816.5853"/><text fill="#000000" font-family="sans-serif" font-size="14" lengthAdjust="spacing" textLength="187.7695" x="909.85" y="822.932">String LOCK_PREFIX_NAME</text><line style="stroke:#181818;stroke-width:0.5;" x1="890.85" x2="1102.6195" y1="830.2338" y2="830.2338"/></g><!--class LockInfoHandleFactory--><g class="entity" data-entity="LockInfoHandleFactory" data-source-line="76" data-uid="ent0014" id="entity_LockInfoHandleFactory"><rect fill="#F1F1F1" height="80.5938" rx="2.5" ry="2.5" style="stroke:#181818;stroke-width:0.5;" width="415.7578" x="773.86" y="276.6769"/><ellipse cx="897.2589" cy="292.6769" fill="#ADD1B2" rx="11" ry="11" style="stroke:#181818;stroke-width:1;"/><path d="M900.2277,298.3175 Q899.6496,298.6144 899.0089,298.755 Q898.3683,298.9113 897.6652,298.9113 Q895.1652,298.9113 893.8371,297.2706 Q892.5246,295.6144 892.5246,292.4894 Q892.5246,289.3644 893.8371,287.7081 Q895.1652,286.0519 897.6652,286.0519 Q898.3683,286.0519 899.0089,286.2081 Q899.6652,286.3644 900.2277,286.6613 L900.2277,289.38 Q899.6027,288.8019 899.0089,288.5363 Q898.4152,288.255 897.7902,288.255 Q896.4464,288.255 895.7589,289.3331 Q895.0714,290.3956 895.0714,292.4894 Q895.0714,294.5831 895.7589,295.6613 Q896.4464,296.7238 897.7902,296.7238 Q898.4152,296.7238 899.0089,296.4581 Q899.6027,296.1769 900.2277,295.5988 L900.2277,298.3175 Z " fill="#000000"/><text fill="#000000" font-family="sans-serif" font-size="14" lengthAdjust="spacing" textLength="160.46" x="917.7589" y="297.5236">LockInfoHandleFactory</text><line style="stroke:#181818;stroke-width:0.5;" x1="774.86" x2="1188.6178" y1="308.6769" y2="308.6769"/><rect fill="none" height="6" style="stroke:#C82930;stroke-width:1;" width="6" x="781.86" y="319.3253"/><text fill="#000000" font-family="sans-serif" font-size="14" lengthAdjust="spacing" textLength="270.0811" x="793.86" y="325.672">ApplicationContext applicationContext</text><line style="stroke:#181818;stroke-width:0.5;" x1="774.86" x2="1188.6178" y1="332.9738" y2="332.9738"/><ellipse cx="784.86" cy="346.6222" fill="#84BE84" rx="3" ry="3" style="stroke:#038048;stroke-width:1;"/><text fill="#000000" font-family="sans-serif" font-size="14" lengthAdjust="spacing" textLength="389.7578" x="793.86" y="349.9689">LockInfoHandle getLockInfoHandle(String lockInfoType)</text></g><!--reverse link ServiceLocker to RedissonReentrantLocker--><g class="link" data-entity-1="ServiceLocker" data-entity-2="RedissonReentrantLocker" data-source-line="86" data-uid="lnk15" id="link_ServiceLocker_RedissonReentrantLocker"><path codeLine="86" d="M1581.5575,181.7115 C1541.7875,200.0715 1515.4,213.1769 1476.73,233.7869 C1447.56,249.3369 1415.94,268.4569 1390.64,284.3369" fill="none" id="ServiceLocker-backto-RedissonReentrantLocker" style="stroke:#181818;stroke-width:1;stroke-dasharray:7,7;"/><polygon fill="none" points="1597.9,174.1669,1579.0426,176.264,1584.0723,187.159,1597.9,174.1669" style="stroke:#181818;stroke-width:1;"/></g><!--reverse link ServiceLocker to RedissonFairLocker--><g class="link" data-entity-1="ServiceLocker" data-entity-2="RedissonFairLocker" data-source-line="87" data-uid="lnk16" id="link_ServiceLocker_RedissonFairLocker"><path codeLine="87" d="M1693.2539,189.1547 C1669.3639,225.8747 1650.24,255.2569 1631.21,284.5069" fill="none" id="ServiceLocker-backto-RedissonFairLocker" style="stroke:#181818;stroke-width:1;stroke-dasharray:7,7;"/><polygon fill="none" points="1703.07,174.0669,1688.2246,185.8827,1698.2831,192.4268,1703.07,174.0669" style="stroke:#181818;stroke-width:1;"/></g><!--reverse link ServiceLocker to RedissonReadLocker--><g class="link" data-entity-1="ServiceLocker" data-entity-2="RedissonReadLocker" data-source-line="88" data-uid="lnk17" id="link_ServiceLocker_RedissonReadLocker"><path codeLine="88" d="M1796.5779,189.1209 C1820.6479,225.8409 1839.93,255.2569 1859.11,284.5069" fill="none" id="ServiceLocker-backto-RedissonReadLocker" style="stroke:#181818;stroke-width:1;stroke-dasharray:7,7;"/><polygon fill="none" points="1786.71,174.0669,1791.5599,192.4102,1801.5959,185.8316,1786.71,174.0669" style="stroke:#181818;stroke-width:1;"/></g><!--reverse link ServiceLocker to RedissonWriteLocker--><g class="link" data-entity-1="ServiceLocker" data-entity-2="RedissonWriteLocker" data-source-line="89" data-uid="lnk18" id="link_ServiceLocker_RedissonWriteLocker"><path codeLine="89" d="M1908.8324,181.8001 C1948.6524,200.1201 1975.05,213.1969 2013.73,233.7869 C2042.92,249.3169 2074.54,268.4369 2099.84,284.3269" fill="none" id="ServiceLocker-backto-RedissonWriteLocker" style="stroke:#181818;stroke-width:1;stroke-dasharray:7,7;"/><polygon fill="none" points="1892.48,174.2769,1906.3246,187.2509,1911.3401,176.3493,1892.48,174.2769" style="stroke:#181818;stroke-width:1;"/></g><!--reverse link LockInfoHandle to AbstractLockInfoHandle--><g class="link" data-entity-1="LockInfoHandle" data-entity-2="AbstractLockInfoHandle" data-source-line="92" data-uid="lnk19" id="link_LockInfoHandle_AbstractLockInfoHandle"><path codeLine="92" d="M996.73,583.3869 C996.73,609.3769 996.73,624.9469 996.73,649.1769" fill="none" id="LockInfoHandle-backto-AbstractLockInfoHandle" style="stroke:#181818;stroke-width:1;stroke-dasharray:7,7;"/><polygon fill="none" points="996.73,565.3869,990.73,583.3869,1002.73,583.3869,996.73,565.3869" style="stroke:#181818;stroke-width:1;"/></g><!--reverse link AbstractLockInfoHandle to ServiceLockInfoHandle--><g class="link" data-entity-1="AbstractLockInfoHandle" data-entity-2="ServiceLockInfoHandle" data-source-line="93" data-uid="lnk20" id="link_AbstractLockInfoHandle_ServiceLockInfoHandle"><path codeLine="93" d="M996.73,732.2869 C996.73,750.5469 996.73,755.4569 996.73,773.6969" fill="none" id="AbstractLockInfoHandle-backto-ServiceLockInfoHandle" style="stroke:#181818;stroke-width:1;"/><polygon fill="none" points="996.73,714.2869,990.73,732.2869,1002.73,732.2869,996.73,714.2869" style="stroke:#181818;stroke-width:1;"/></g><!--link ServiceLockAspect to LockInfoHandleFactory--><g class="link" data-entity-1="ServiceLockAspect" data-entity-2="LockInfoHandleFactory" data-source-line="96" data-uid="lnk21" id="link_ServiceLockAspect_LockInfoHandleFactory"><path codeLine="96" d="M647.13,157.9369 C723.24,193.8769 820.7846,239.9547 892.3146,273.7347" fill="none" id="ServiceLockAspect-to-LockInfoHandleFactory" style="stroke:#181818;stroke-width:1;"/><polygon fill="#181818" points="897.74,276.2969,891.31,268.8367,893.2188,274.1617,887.8937,276.0706,897.74,276.2969" style="stroke:#181818;stroke-width:1;"/></g><!--link ServiceLockAspect to ServiceLockFactory--><g class="link" data-entity-1="ServiceLockAspect" data-entity-2="ServiceLockFactory" data-source-line="97" data-uid="lnk22" id="link_ServiceLockAspect_ServiceLockFactory"><path codeLine="97" d="M545.73,157.8069 C545.73,193.8069 545.73,236.5869 545.73,270.4169" fill="none" id="ServiceLockAspect-to-ServiceLockFactory" style="stroke:#181818;stroke-width:1;"/><polygon fill="#181818" points="545.73,276.4169,549.73,267.4169,545.73,271.4169,541.73,267.4169,545.73,276.4169" style="stroke:#181818;stroke-width:1;"/></g><!--link ServiceLockFactory to ManageLocker--><g class="link" data-entity-1="ServiceLockFactory" data-entity-2="ManageLocker" data-source-line="98" data-uid="lnk23" id="link_ServiceLockFactory_ManageLocker"><path codeLine="98" d="M543.04,357.6769 C541.06,386.6669 538.7562,420.5806 536.4862,454.0306" fill="none" id="ServiceLockFactory-to-ManageLocker" style="stroke:#181818;stroke-width:1;"/><polygon fill="#181818" points="536.08,460.0169,540.6802,451.3084,536.4185,455.0283,532.6985,450.7667,536.08,460.0169" style="stroke:#181818;stroke-width:1;"/></g><!--link LockInfoHandleFactory to LockInfoHandle--><g class="link" data-entity-1="LockInfoHandleFactory" data-entity-2="LockInfoHandle" data-source-line="99" data-uid="lnk24" id="link_LockInfoHandleFactory_LockInfoHandle"><path codeLine="99" d="M984.63,357.6769 C987.28,394.1469 990.7647,441.9027 993.4147,478.3327" fill="none" id="LockInfoHandleFactory-to-LockInfoHandle" style="stroke:#181818;stroke-width:1;"/><polygon fill="#181818" points="993.85,484.3169,997.1865,475.0504,993.4872,479.3301,989.2076,475.6308,993.85,484.3169" style="stroke:#181818;stroke-width:1;"/></g><!--link ServiceLockAspect to ServiceLock--><g class="link" data-entity-1="ServiceLockAspect" data-entity-2="ServiceLock" data-source-line="100" data-uid="lnk25" id="link_ServiceLockAspect_ServiceLock"><path codeLine="100" d="M460.15,157.8069 C419.91,180.2569 375.9994,204.7631 329.9994,230.4331" fill="none" id="ServiceLockAspect-to-ServiceLock" style="stroke:#181818;stroke-width:1;stroke-dasharray:7,7;"/><polygon fill="#181818" points="324.76,233.3569,334.5683,232.4641,329.1262,230.9204,330.6699,225.4782,324.76,233.3569" style="stroke:#181818;stroke-width:1;"/></g><!--SRC=[fLNTJXD15BxVfvZ42o2oVOA6f26Wo5zJC9eOGuRjq0niPvhTATA85oWYc0XS66Cm6149NA64630Wl0pRmfMlu6ndfZlRdMqqD2tid3dpdJFdVETRXfcBGFtaOsFlW7-3rPNWz5Lmld7pVgd-vJIuVDKuEWjU7pUEpu9F5vRL1Uh71zVxkzngEIxqVJ21l7die17gp85i5X926MIOahu-yDm2_7Ctt9giLH1mvKDtZzYOO1uc9K1WkStqv2cOGpLV6LtAlPv1p2Pnv1a-FoIO0IOVr4Op7BUDLnb7WmoLQY8ojz78rfQ4K_KPBOyO_Lw4zmvMtzniVpNUE-TNaCFaTUtGCaHcw7r8YYuQX0wZdiWWOHK7D2JbxITC8jdnwTam4lHebHIxynvr42hoz1zGJFByny2iUkgDTKO3bFUfh-y56xj_phTYBN_x-_fen-B7aJS37QHZ84yrjD24B24M_k-M1GmlE8ngFRgBcxe_JQcB807Cgnb0Ua6hkrN-fnV4620XvYakyktq6Bf3b8zgv-PoO_yTAF3o-Jub83Zyt5Z_4RLNRHGG8fm9XCLAOAljVXVpVU35bc64ECeWnDwj00e85cy5yCZ33Fqd0g_IoLwm_j98UaLL2JOA2Iof06Lj8QSinYD5dOGoz4I9nm3_AMD1l9I-yP1j9YK0XXvnvsZLxgUreWcgLkr-UiMvexPKai87xkfofxxqFVYstDXS4HEf3LzSITJqIQxB6ew5ucaU_qXTrKBgQbpvV5okkEYU1jVffD2Efao8aR7WjC-hobL9z2qdbyRaxyIJptje1Y-C2VrlTLxZIWB0bW0Zu_t3K_d2mE3GuwcntEX0TDeil_9qhb9niTDyF_LJNkS5hgK9K_GQqSBBZ2EBhZcXjKNVBc2dVCA14g_ImwshNskTF5i2BOeiZbdnASekPZ9fEjN9DQ9sPq15x4vU6giZOd2zQ9pjrzSkPTfjfMm2c6bYfR0dksZRPbw4KQykjgz_VaZMIBwNRRlFp8eKtwJ8MGRT2prrZRBCn4i6DqJDP69H_m80]--></g></svg>